<svg width="81" height="90" viewBox="0 0 81 90" fill="none" xmlns="http://www.w3.org/2000/svg">
<mask id="mask0_363_839" style="mask-type:alpha" maskUnits="userSpaceOnUse" x="0" y="0" width="81" height="90">
<path d="M0 0H81V90H0V0Z" fill="white"/>
</mask>
<g mask="url(#mask0_363_839)">
<path fill-rule="evenodd" clip-rule="evenodd" d="M46.8699 41.6543L63.2849 21.5767C75.8055 6.79774 90.8313 33.5663 72.1881 37.1928L47.1468 41.9318L46.8699 41.6543ZM46.5907 49.1825V48.9038L72.1881 53.0865C91.1093 56.432 75.5286 82.9242 63.0068 68.7027L46.5907 49.1825ZM31.843 13.4899C25.1656 -4.6357 55.7732 -4.35701 49.6507 13.4899L41.3048 37.7502H40.7475L31.843 13.4899ZM40.7475 52.2505H41.3048L49.6507 76.5108C55.7732 94.6364 24.8875 94.3565 31.565 76.5108L40.7475 52.2505ZM8.74948 37.1928C-9.89128 33.2888 5.68943 6.79774 17.6539 21.5767L34.07 41.6543V41.9318L8.74948 37.1928ZM8.74948 53.0865L34.3481 48.9038L34.6262 49.1825L17.932 68.7027C5.13326 82.9242 -9.89128 56.1533 8.74948 53.0865Z" fill="white"/>
</g>
</svg>
