<svg width="36" height="36" viewBox="0 0 36 36" fill="none" xmlns="http://www.w3.org/2000/svg">
<path fill-rule="evenodd" clip-rule="evenodd" d="M26.2929 14.8221C26.6834 14.4316 26.6834 13.7984 26.2929 13.4079L25.5913 12.7063C25.2011 12.3161 24.5685 12.3158 24.1779 12.7056L18 18.87L11.8221 12.7056C11.4315 12.3158 10.7989 12.3161 10.4087 12.7063L9.70711 13.4079C9.31658 13.7984 9.31658 14.4316 9.70711 14.8221L18 23.115L26.2929 14.8221Z" fill="black" fill-opacity="0.7"/>
<mask id="mask0" style="mask-type:alpha" maskUnits="userSpaceOnUse" x="9" y="12" width="18" height="12">
<path fill-rule="evenodd" clip-rule="evenodd" d="M26.2929 14.8221C26.6834 14.4316 26.6834 13.7984 26.2929 13.4079L25.5913 12.7063C25.2011 12.3161 24.5685 12.3158 24.1779 12.7056L18 18.87L11.8221 12.7056C11.4315 12.3158 10.7989 12.3161 10.4087 12.7063L9.70711 13.4079C9.31658 13.7984 9.31658 14.4316 9.70711 14.8221L18 23.115L26.2929 14.8221Z" fill="white"/>
</mask>
<g mask="url(#mask0)">
<rect x="36" width="36" height="36" transform="rotate(90 36 0)" fill="#9FC3AF"/>
</g>
</svg>
