<svg width="60" height="60" viewBox="0 0 60 60" fill="none" xmlns="http://www.w3.org/2000/svg">
<path fill-rule="evenodd" clip-rule="evenodd" d="M50 7.5H10C5.87014 7.5 2.525 10.8684 2.525 15L2.5 44.9979C2.5 49.1307 5.86929 52.5 10 52.5H50C54.1307 52.5 57.5 49.1307 57.5 45V15C57.5 10.8693 54.1307 7.5 50 7.5ZM7.525 15.0021C7.525 13.6221 8.63934 12.5 10 12.5H50C51.3693 12.5 52.5 13.6307 52.5 15V45C52.5 46.3693 51.3693 47.5 50 47.5H10C8.63071 47.5 7.5 46.3693 7.5 45L7.525 15.0021ZM12.4274 21.7241C11.9544 21.439 11.8019 20.8245 12.087 20.3514L13.6352 17.7818C13.9203 17.3088 14.5348 17.1563 15.0079 17.4414L29.9278 26.431L45.4393 17.0849C45.9123 16.7999 46.5269 16.9523 46.8119 17.4254L48.3618 19.9977C48.6462 20.4697 48.4952 21.0828 48.0241 21.3687L30.0282 32.2908L30.0113 32.3188L12.4274 21.7241Z" fill="#979797"/>
<mask id="mask0" style="mask-type:alpha" maskUnits="userSpaceOnUse" x="2" y="7" width="56" height="46">
<path fill-rule="evenodd" clip-rule="evenodd" d="M50 7.5H10C5.87014 7.5 2.525 10.8684 2.525 15L2.5 44.9979C2.5 49.1307 5.86929 52.5 10 52.5H50C54.1307 52.5 57.5 49.1307 57.5 45V15C57.5 10.8693 54.1307 7.5 50 7.5ZM7.525 15.0021C7.525 13.6221 8.63934 12.5 10 12.5H50C51.3693 12.5 52.5 13.6307 52.5 15V45C52.5 46.3693 51.3693 47.5 50 47.5H10C8.63071 47.5 7.5 46.3693 7.5 45L7.525 15.0021ZM12.4274 21.7241C11.9544 21.439 11.8019 20.8245 12.087 20.3514L13.6352 17.7818C13.9203 17.3088 14.5348 17.1563 15.0079 17.4414L29.9278 26.431L45.4393 17.0849C45.9123 16.7999 46.5269 16.9523 46.8119 17.4254L48.3618 19.9977C48.6462 20.4697 48.4952 21.0828 48.0241 21.3687L30.0282 32.2908L30.0113 32.3188L12.4274 21.7241Z" fill="white"/>
</mask>
<g mask="url(#mask0)">
<rect width="60" height="60" fill="#9FC3AF"/>
<rect width="60" height="60" fill="#9FC3AF"/>
</g>
</svg>
