<svg width="22" height="21" viewBox="0 0 22 21" fill="none" xmlns="http://www.w3.org/2000/svg">
<path d="M10.1009 0.846821L7.75448 5.66647C7.6115 5.96016 7.33409 6.16551 7.01144 6.21649L1.79114 7.04132C1.01344 7.1642 0.676205 8.09597 1.19512 8.68813L4.90496 12.9216C5.09876 13.1427 5.1854 13.438 5.14184 13.7288L4.34151 19.0715C4.22082 19.8772 5.06258 20.4814 5.78728 20.1092L10.5602 17.6583C10.8374 17.5159 11.1651 17.511 11.4465 17.6448L16.6519 20.1209C17.4037 20.4785 18.2377 19.8146 18.0578 19.0018L16.8989 13.7646C16.8301 13.4538 16.9134 13.1289 17.1232 12.8895L20.8049 8.68813C21.3238 8.09597 20.9866 7.1642 20.2089 7.04132L14.9886 6.21649C14.6659 6.16551 14.3885 5.96016 14.2455 5.66646L11.8991 0.846819C11.5341 0.097118 10.4659 0.0971197 10.1009 0.846821Z" fill="white"/>
</svg>
